 <svg version="1.0" xmlns="http://www.w3.org/2000/svg" width="700.000000pt" height="483.000000pt" viewBox="0 0 700.000000 483.000000" preserveAspectRatio="xMidYMid meet">
<metadata>
Created by potrace 1.12, written by Peter Selinger 2001-2015
</metadata>
<g transform="translate(0.000000,483.000000) scale(0.100000,-0.100000)" fill="#000000" stroke="none">
<path d="M3445 4160 l-343 -342 5 -57 c6 -66 -9 -104 -57 -145 -25 -20 -42
-26 -82 -26 -88 0 -133 33 -158 117 -11 35 -10 46 8 85 33 76 115 121 177 98
28 -11 33 -7 277 237 254 254 271 276 236 311 -28 28 -55 8 -232 -166 l-181
-179 -165 -93 c-167 -95 -202 -123 -243 -195 -22 -39 -22 -45 -22 -425 0 -345
2 -388 17 -416 39 -71 81 -108 192 -169 23 -12 104 -59 181 -104 77 -46 160
-94 185 -108 25 -13 64 -35 86 -49 56 -32 126 -45 191 -33 51 10 71 21 491
266 225 132 262 178 262 330 l0 59 70 69 c39 38 70 77 70 86 0 21 -34 52 -53
47 -22 -5 -277 -256 -277 -273 0 -7 5 -17 10 -20 18 -11 11 -76 -12 -117 -57
-101 -207 -104 -269 -6 -26 42 -22 126 7 165 39 52 70 67 132 66 l57 -2 183
182 c121 121 182 189 182 203 0 23 -29 54 -50 54 -7 0 -77 -63 -155 -140 -77
-77 -148 -140 -156 -140 -21 0 -49 32 -49 55 0 11 85 104 205 225 134 134 205
213 205 226 0 23 -29 54 -50 54 -8 0 -105 -90 -216 -201 l-202 -201 5 -61 c4
-53 2 -67 -19 -97 -66 -99 -222 -91 -272 13 -56 120 62 262 179 217 l30 -12
308 313 c169 172 307 320 307 329 0 20 -31 50 -51 50 -8 0 -133 -119 -279
-265 -179 -179 -272 -265 -286 -265 -31 0 -57 34 -49 62 4 13 81 98 172 189
133 134 164 171 161 190 -2 15 -13 27 -31 33 -27 10 -39 -2 -410 -369 l-382
-380 3 -61 c6 -114 -43 -174 -143 -174 -91 0 -155 62 -155 150 0 91 67 154
157 147 l52 -4 328 328 c183 183 329 337 331 349 4 27 -15 50 -40 50 -12 0
-106 -83 -245 -217 -124 -120 -234 -219 -244 -221 -28 -5 -49 16 -49 47 0 21
58 84 292 318 283 283 292 293 282 320 -7 20 -17 29 -38 31 -26 3 -63 -30
-371 -338z"></path>
<path d="M2916 3778 c-9 -12 -16 -32 -16 -45 0 -23 34 -53 61 -53 44 0 68 89
30 110 -31 16 -59 12 -75 -12z"></path>
<path d="M3714 3444 c-26 -39 -9 -78 34 -82 41 -4 62 12 62 48 0 56 -66 80
-96 34z"></path>
<path d="M3106 3389 c-33 -26 -33 -49 -1 -79 21 -20 30 -22 52 -14 16 5 32 21
37 37 8 22 6 31 -14 52 -29 30 -40 31 -74 4z"></path>
<path d="M3901 3054 c-27 -34 -26 -40 4 -70 19 -18 31 -23 48 -19 47 15 61 61
27 95 -27 27 -55 25 -79 -6z"></path>
<path d="M1297 2146 c-140 -50 -205 -158 -195 -324 8 -138 65 -205 250 -298
155 -77 188 -111 188 -193 0 -53 -35 -94 -94 -111 -57 -16 -107 -7 -147 27
-38 33 -55 70 -64 146 -4 31 -10 57 -14 56 -3 0 -35 -14 -71 -32 l-65 -32 1
-46 c7 -200 233 -324 448 -245 142 51 216 154 216 299 0 142 -53 214 -219 297
-167 83 -201 117 -201 200 0 82 49 129 134 130 42 0 53 -5 82 -34 30 -30 34
-40 34 -89 0 -31 3 -58 8 -60 4 -2 36 9 71 26 l63 30 -5 48 c-12 102 -90 187
-190 209 -66 14 -184 12 -230 -4z"></path>
<path d="M3055 2146 c-133 -27 -264 -116 -334 -225 -17 -26 -43 -81 -58 -122
-23 -64 -27 -90 -26 -184 0 -92 4 -122 25 -183 84 -237 279 -362 564 -362 189
0 355 77 446 208 l29 42 -53 50 -53 50 -20 -28 c-11 -15 -45 -52 -75 -83 -44
-44 -70 -61 -120 -77 -84 -29 -179 -29 -265 0 -167 54 -265 247 -235 461 19
131 88 235 194 290 57 30 67 32 166 32 101 0 108 -1 168 -34 63 -34 142 -111
142 -137 0 -23 21 -16 76 26 l53 40 -20 34 c-63 107 -180 186 -304 206 -80 13
-226 11 -300 -4z"></path>
<path d="M270 1621 l0 -531 105 0 105 0 0 165 c0 124 3 167 13 169 6 2 56 9
110 15 166 19 272 87 329 210 24 52 29 78 31 145 1 69 -3 90 -26 141 -35 76
-95 138 -172 178 l-60 32 -217 3 -218 4 0 -531z m392 353 c65 -45 83 -84 83
-179 0 -94 -18 -134 -80 -177 -42 -30 -140 -56 -168 -45 -15 6 -17 29 -17 215
0 115 3 212 8 216 4 4 35 6 69 4 49 -3 72 -10 105 -34z"></path>
<path d="M1800 2141 c0 -6 69 -146 153 -313 l152 -303 3 -218 3 -218 102 3
102 3 5 220 5 220 153 302 c83 166 152 305 152 308 0 3 -37 5 -82 3 l-83 -3
-109 -215 -109 -215 -41 85 c-23 47 -69 145 -103 218 l-62 132 -120 0 c-70 0
-121 -4 -121 -9z"></path>
<path d="M3819 2146 c-2 -2 -3 -241 -1 -531 l2 -526 103 3 102 3 2 274 1 273
164 0 163 0 3 -276 2 -276 105 0 105 0 0 530 0 530 -105 0 -105 0 -2 -182 -3
-183 -164 0 -164 0 -1 180 -1 180 -101 3 c-55 1 -102 1 -105 -2z"></path>
<path d="M5284 2136 c-3 -7 -4 -197 -2 -422 3 -407 3 -409 27 -462 56 -124
183 -188 356 -180 147 7 243 66 297 183 23 49 23 56 26 473 l3 422 -80 0 -80
0 -3 -419 c-3 -406 -4 -420 -24 -447 -37 -51 -70 -68 -137 -72 -52 -3 -67 0
-96 20 -19 12 -44 36 -55 51 -20 28 -21 40 -24 448 l-3 419 -100 0 c-75 0
-101 -3 -105 -14z"></path>
<path d="M6150 1621 l0 -531 105 0 105 0 0 165 c0 124 3 167 13 169 6 2 54 8
105 14 163 19 282 92 334 207 32 71 33 228 1 297 -30 66 -97 135 -168 171
l-60 32 -217 3 -218 3 0 -530z m392 352 c65 -47 83 -84 83 -173 0 -127 -56
-197 -176 -222 -93 -19 -89 -29 -89 210 0 115 3 212 8 216 4 4 35 6 69 4 50
-3 71 -10 105 -35z"></path>
<path d="M4727 1623 c-4 -3 -7 -37 -7 -75 l0 -68 200 0 200 0 0 75 0 75 -193
0 c-107 0 -197 -3 -200 -7z"></path>
<path d="M2255 706 c-17 -7 -43 -28 -58 -45 -51 -61 -31 -181 37 -226 39 -26
97 -30 135 -10 31 15 34 15 51 0 20 -18 40 -13 40 10 0 7 -5 15 -12 17 -8 3
-6 18 7 51 52 138 -69 260 -200 203z m133 -60 c28 -27 39 -93 22 -125 l-12
-23 -23 22 c-15 14 -30 20 -41 16 -15 -6 -14 -10 10 -34 14 -16 23 -31 19 -35
-8 -9 -76 -9 -98 -1 -38 15 -60 118 -34 165 15 28 68 50 104 44 17 -3 40 -16
53 -29z"></path>
<path d="M2657 714 c-4 -4 -7 -54 -7 -111 0 -120 12 -152 64 -177 43 -20 69
-20 113 1 50 24 63 61 63 188 0 105 0 106 -22 103 -22 -3 -23 -8 -28 -114 -6
-127 -14 -144 -70 -144 -60 0 -69 19 -72 145 -2 90 -6 110 -18 113 -9 1 -19 0
-23 -4z"></path>
<path d="M3084 707 c-2 -7 -3 -76 -2 -152 3 -132 4 -140 23 -140 19 0 20 8 23
153 2 148 2 152 -18 152 -11 0 -23 -6 -26 -13z"></path>
<path d="M3322 698 c3 -20 8 -21 70 -19 36 1 68 -2 71 -6 3 -5 -30 -63 -73
-128 -43 -66 -74 -124 -71 -128 4 -4 57 -6 117 -5 101 3 109 4 109 23 0 18 -7
20 -73 20 -77 0 -84 6 -54 46 26 35 132 206 132 213 0 3 -52 6 -116 6 -113 0
-115 0 -112 -22z"></path>
<path d="M4354 707 c-2 -7 -3 -76 -2 -152 3 -132 4 -140 23 -140 16 0 21 8 25
45 5 43 6 45 40 48 64 5 80 12 100 45 35 56 20 126 -31 153 -36 18 -148 19
-155 1z m136 -47 c24 -24 26 -57 4 -88 -12 -18 -24 -22 -52 -20 -37 3 -37 4
-40 52 -2 27 -1 55 2 62 8 21 63 17 86 -6z"></path>
<path d="M4734 707 c-2 -7 -3 -76 -2 -152 3 -132 4 -140 23 -140 16 0 21 8 25
45 l5 45 54 5 c60 6 86 29 96 84 9 45 -17 103 -50 116 -39 15 -145 13 -151 -3z
m136 -47 c45 -45 12 -114 -52 -108 -32 3 -33 5 -36 52 -2 27 -1 55 2 62 8 21
63 17 86 -6z"></path>
<path d="M4033 693 c-3 -10 -30 -74 -60 -141 -29 -68 -51 -128 -47 -133 12
-20 36 -7 50 26 14 35 15 35 75 35 59 0 60 0 75 -35 9 -23 21 -35 34 -35 25 0
25 12 1 64 -11 23 -38 84 -59 136 -40 96 -57 116 -69 83z m40 -118 c9 -20 17
-40 17 -45 0 -13 -67 -13 -75 -1 -6 10 25 81 35 81 3 0 14 -16 23 -35z"></path>
</g>
</svg>